<?xml version="1.0" standalone="no"?>
<!DOCTYPE svg PUBLIC "-//W3C//DTD SVG 20010904//EN"
 "http://www.w3.org/TR/2001/REC-SVG-20010904/DTD/svg10.dtd">
<svg version="1.0" xmlns="http://www.w3.org/2000/svg"
 width="700.000000pt" height="700.000000pt" viewBox="0 0 700.000000 700.000000"
 preserveAspectRatio="xMidYMid meet">
<metadata>
Created by potrace 1.14, written by Peter Selinger 2001-2017
</metadata>
<g transform="translate(0.000000,700.000000) scale(0.100000,-0.100000)"
fill="#000000" stroke="none">
<path d="M3275 4483 c-76 -6 -210 -24 -267 -35 l-58 -11 0 -1294 0 -1294 158
3 157 3 3 569 2 569 193 -5 c164 -4 201 -8 256 -27 176 -61 250 -172 321 -481
22 -96 51 -227 66 -290 29 -129 58 -234 81 -297 l16 -43 158 0 c88 0 159 4
159 8 0 5 -11 41 -25 81 -29 86 -56 196 -129 518 -30 131 -66 270 -81 308 -60
150 -148 261 -246 310 -27 14 -49 29 -48 33 0 4 35 24 78 44 51 25 103 61 149
103 159 147 231 336 219 570 -9 185 -65 323 -176 438 -163 169 -359 228 -746
225 -110 -1 -218 -3 -240 -5z m510 -278 c141 -39 263 -139 305 -252 95 -255 2
-535 -213 -641 -105 -52 -168 -62 -399 -62 l-208 0 0 474 c0 463 0 475 20 481
88 28 393 28 495 0z"/>
<path d="M1217 4463 c-6 -10 -817 -2598 -817 -2606 0 -4 72 -7 159 -7 l159 0
16 48 c22 69 236 773 236 778 0 2 193 4 428 4 l428 0 129 -412 130 -413 169
-3 c133 -2 167 0 164 10 -3 7 -189 597 -413 1311 l-409 1297 -187 0 c-103 0
-190 -3 -192 -7z m228 -473 c41 -166 56 -217 206 -692 60 -191 109 -349 109
-353 0 -3 -162 -5 -360 -5 -198 0 -360 3 -360 8 0 4 56 187 125 407 69 220
149 493 178 608 34 135 55 201 59 190 4 -10 24 -83 43 -163z"/>
<path d="M4820 4325 l0 -145 365 0 365 0 0 -1165 0 -1165 160 0 160 0 0 1165
0 1165 368 2 367 3 3 143 3 142 -896 0 -895 0 0 -145z"/>
</g>
</svg>
